<svg width="512" height="295" viewBox="0 0 512 295" fill="none" xmlns="http://www.w3.org/2000/svg">
<g clip-path="url(#clip0_1204_33)">
<path d="M86.4758 196.32H110.02L134.428 273H113.044L108.4 257.988H87.9878L83.4518 273H61.9598L86.4758 196.32ZM105.052 243.948L98.2478 216.948L91.1198 243.948H105.052ZM196.527 273H176.007V241.032C176.007 238.224 175.359 236.208 174.063 234.984C172.839 233.688 171.399 233.04 169.743 233.04C168.591 233.04 167.367 233.4 166.071 234.12C164.775 234.768 163.587 235.704 162.507 236.928C161.427 238.152 160.563 239.556 159.915 241.14V273H139.395V216.192H157.863V224.616C159.231 222.528 160.959 220.8 163.047 219.432C165.135 217.992 167.547 216.912 170.283 216.192C173.019 215.472 176.007 215.112 179.247 215.112C183.135 215.112 186.231 215.796 188.535 217.164C190.839 218.532 192.567 220.296 193.719 222.456C194.871 224.616 195.627 226.884 195.987 229.26C196.347 231.564 196.527 233.688 196.527 235.632V273ZM205.197 278.724C206.853 279.3 208.365 279.732 209.733 280.02C211.173 280.38 212.469 280.56 213.621 280.56C215.133 280.56 216.393 280.272 217.401 279.696C218.409 279.192 219.201 278.364 219.777 277.212C220.353 276.06 220.713 274.656 220.857 273L200.229 216.192H221.289L232.089 251.94L240.837 216.192H259.953L240.729 279.804C239.649 283.476 237.885 286.68 235.437 289.416C232.989 292.224 230.073 294.384 226.689 295.896C223.305 297.48 219.669 298.272 215.781 298.272C213.981 298.272 212.181 298.092 210.381 297.732C208.653 297.444 206.925 296.94 205.197 296.22V278.724ZM266.94 273V196.32H299.988C303.732 196.32 307.188 197.076 310.356 198.588C313.524 200.1 316.26 202.152 318.564 204.744C320.868 207.264 322.632 210.108 323.856 213.276C325.152 216.444 325.8 219.648 325.8 222.888C325.8 227.424 324.72 231.708 322.56 235.74C320.472 239.772 317.52 243.084 313.704 245.676C309.96 248.196 305.568 249.456 300.528 249.456H288V273H266.94ZM288 231.096H299.124C299.988 231.096 300.816 230.844 301.608 230.34C302.4 229.836 303.048 228.972 303.552 227.748C304.128 226.524 304.416 224.904 304.416 222.888C304.416 220.728 304.092 219.072 303.444 217.92C302.868 216.696 302.112 215.868 301.176 215.436C300.312 214.932 299.448 214.68 298.584 214.68H288V231.096ZM328.849 255.828C328.849 252.012 329.893 248.664 331.981 245.784C334.069 242.832 336.949 240.528 340.621 238.872C344.365 237.216 348.613 236.388 353.365 236.388C355.597 236.388 357.685 236.568 359.629 236.928C361.645 237.288 363.373 237.828 364.813 238.548V236.82C364.813 234.156 364.021 232.176 362.437 230.88C360.925 229.584 358.441 228.936 354.985 228.936C351.817 228.936 348.829 229.476 346.021 230.556C343.285 231.564 340.405 233.076 337.381 235.092L331.441 222.348C335.257 219.9 339.253 218.1 343.429 216.948C347.677 215.724 352.213 215.112 357.037 215.112C366.037 215.112 372.985 217.164 377.881 221.268C382.849 225.3 385.333 231.312 385.333 239.304V250.32C385.333 252.264 385.621 253.632 386.197 254.424C386.773 255.144 387.781 255.576 389.221 255.72V273C387.565 273.36 385.981 273.612 384.469 273.756C383.029 273.972 381.733 274.08 380.581 274.08C376.909 274.08 374.101 273.432 372.157 272.136C370.285 270.768 369.061 268.788 368.485 266.196L368.053 264.144C365.533 267.384 362.617 269.868 359.305 271.596C355.993 273.252 352.465 274.08 348.721 274.08C344.977 274.08 341.593 273.288 338.569 271.704C335.545 270.12 333.169 267.96 331.441 265.224C329.713 262.416 328.849 259.284 328.849 255.828ZM362.113 257.232C362.905 256.656 363.553 256.044 364.057 255.396C364.561 254.676 364.813 253.956 364.813 253.236V249.024C363.661 248.592 362.329 248.232 360.817 247.944C359.377 247.656 358.081 247.512 356.929 247.512C354.481 247.512 352.393 248.124 350.665 249.348C349.009 250.572 348.181 252.12 348.181 253.992C348.181 255 348.469 255.936 349.045 256.8C349.621 257.592 350.413 258.24 351.421 258.744C352.429 259.176 353.581 259.392 354.877 259.392C356.101 259.392 357.361 259.212 358.657 258.852C360.025 258.42 361.177 257.88 362.113 257.232ZM393.67 278.724C395.326 279.3 396.838 279.732 398.206 280.02C399.646 280.38 400.942 280.56 402.094 280.56C403.606 280.56 404.866 280.272 405.874 279.696C406.882 279.192 407.674 278.364 408.25 277.212C408.826 276.06 409.186 274.656 409.33 273L388.702 216.192H409.762L420.562 251.94L429.31 216.192H448.426L429.202 279.804C428.122 283.476 426.358 286.68 423.91 289.416C421.462 292.224 418.546 294.384 415.162 295.896C411.778 297.48 408.142 298.272 404.254 298.272C402.454 298.272 400.654 298.092 398.854 297.732C397.126 297.444 395.398 296.94 393.67 296.22V278.724Z" fill="white"/>
<path fill-rule="evenodd" clip-rule="evenodd" d="M237.207 104.539C236.11 103.103 234.807 101.963 233.372 101.184C231.938 100.405 230.4 100.003 228.846 100C227.292 99.9973 225.754 100.394 224.318 101.168C222.881 101.942 221.576 103.078 220.476 104.51C219.376 105.943 218.503 107.644 217.907 109.518C217.31 111.391 217.002 113.399 217 115.428C216.998 117.456 217.302 119.466 217.895 121.341C218.487 123.216 219.357 124.921 220.454 126.357L266.245 186L283 164.177L237.207 104.539Z" fill="#F4A800"/>
<path fill-rule="evenodd" clip-rule="evenodd" d="M285.467 70.6152L239.001 11L222 32.812L268.467 92.4296C269.579 93.8727 270.902 95.0192 272.359 95.8035C273.817 96.5877 275.38 96.9944 276.96 96.9999C278.54 97.0055 280.105 96.61 281.566 95.8361C283.027 95.0621 284.355 93.925 285.473 92.4898C286.592 91.0546 287.479 89.3496 288.084 87.4725C288.689 85.5954 289.001 83.5831 289 81.551C288.999 79.5188 288.687 77.5068 288.081 75.6302C287.475 73.7536 286.587 72.0494 285.467 70.6152V70.6152Z" fill="#F4A800"/>
<path fill-rule="evenodd" clip-rule="evenodd" d="M240.745 14.2115L239.018 11L177.492 90.5554C175.256 93.4605 174 97.4006 174 101.509C174 105.618 175.256 109.558 177.492 112.463C179.727 115.368 182.76 117 185.921 117C189.083 117 192.116 115.368 194.351 112.463L240.422 52.889C250.258 40.1706 244.934 22.0308 240.745 14.2115Z" fill="#FFBB13"/>
<path fill-rule="evenodd" clip-rule="evenodd" d="M328.519 84.5366C326.278 81.6359 323.246 80.005 320.084 80C316.922 79.995 313.887 81.6164 311.642 84.5102L265.577 144.099C255.742 156.819 261.066 174.966 265.257 182.783L266.978 186L328.5 106.419C329.608 104.985 330.487 103.281 331.088 101.404C331.688 99.5274 331.998 97.5154 332 95.4829C332.002 93.4504 331.695 91.4375 331.098 89.5592C330.5 87.6809 329.624 85.9742 328.519 84.5366V84.5366Z" fill="#FFBB13"/>
</g>
<defs>
<clipPath id="clip0_1204_33">
<rect width="512" height="295" fill="white"/>
</clipPath>
</defs>
</svg>
