<svg width="512" height="295" viewBox="0 0 512 295" fill="none" xmlns="http://www.w3.org/2000/svg">
<path d="M171.524 291V232.68H156.62L156.188 243.048C155.756 252.84 154.82 260.904 153.38 267.24C152.012 273.504 149.96 278.436 147.224 282.036C144.488 285.564 140.96 288.084 136.64 289.596C132.392 291.036 127.244 291.756 121.196 291.756V273.612C123.644 273.612 125.732 273.18 127.46 272.316C129.26 271.38 130.736 269.652 131.888 267.132C133.112 264.54 134.048 260.832 134.696 256.008C135.416 251.112 135.92 244.704 136.208 236.784L137.072 214.32H192.584V291H171.524ZM201.232 273.828C201.232 270.012 202.276 266.664 204.364 263.784C206.452 260.832 209.332 258.528 213.004 256.872C216.748 255.216 220.996 254.388 225.748 254.388C227.98 254.388 230.068 254.568 232.012 254.928C234.028 255.288 235.756 255.828 237.196 256.548V254.82C237.196 252.156 236.404 250.176 234.82 248.88C233.308 247.584 230.824 246.936 227.368 246.936C224.2 246.936 221.212 247.476 218.404 248.556C215.668 249.564 212.788 251.076 209.764 253.092L203.824 240.348C207.64 237.9 211.636 236.1 215.812 234.948C220.06 233.724 224.596 233.112 229.42 233.112C238.42 233.112 245.368 235.164 250.264 239.268C255.232 243.3 257.716 249.312 257.716 257.304V268.32C257.716 270.264 258.004 271.632 258.58 272.424C259.156 273.144 260.164 273.576 261.604 273.72V291C259.948 291.36 258.364 291.612 256.852 291.756C255.412 291.972 254.116 292.08 252.964 292.08C249.292 292.08 246.484 291.432 244.54 290.136C242.668 288.768 241.444 286.788 240.868 284.196L240.436 282.144C237.916 285.384 235 287.868 231.688 289.596C228.376 291.252 224.848 292.08 221.104 292.08C217.36 292.08 213.976 291.288 210.952 289.704C207.928 288.12 205.552 285.96 203.824 283.224C202.096 280.416 201.232 277.284 201.232 273.828ZM234.496 275.232C235.288 274.656 235.936 274.044 236.44 273.396C236.944 272.676 237.196 271.956 237.196 271.236V267.024C236.044 266.592 234.712 266.232 233.2 265.944C231.76 265.656 230.464 265.512 229.312 265.512C226.864 265.512 224.776 266.124 223.048 267.348C221.392 268.572 220.564 270.12 220.564 271.992C220.564 273 220.852 273.936 221.428 274.8C222.004 275.592 222.796 276.24 223.804 276.744C224.812 277.176 225.964 277.392 227.26 277.392C228.484 277.392 229.744 277.212 231.04 276.852C232.408 276.42 233.56 275.88 234.496 275.232ZM269.232 291V234.192H303.576C308.112 234.192 311.712 234.84 314.376 236.136C317.04 237.36 318.948 239.016 320.1 241.104C321.324 243.12 321.936 245.352 321.936 247.8C321.936 251.112 321.216 253.92 319.776 256.224C318.408 258.528 316.176 260.364 313.08 261.732C316.392 262.668 319.128 264.18 321.288 266.268C323.448 268.356 324.528 271.38 324.528 275.34C324.528 279.3 323.592 282.432 321.72 284.736C319.92 287.04 317.256 288.66 313.728 289.596C310.2 290.532 305.916 291 300.876 291H269.232ZM288.672 277.392H300.228C301.092 277.392 301.848 277.212 302.496 276.852C303.216 276.492 303.756 275.988 304.116 275.34C304.548 274.692 304.764 273.9 304.764 272.964C304.764 272.028 304.548 271.236 304.116 270.588C303.756 269.94 303.216 269.436 302.496 269.076C301.848 268.716 301.092 268.536 300.228 268.536H288.672V277.392ZM288.672 256.116H298.5C299.364 256.116 300.12 255.936 300.768 255.576C301.416 255.216 301.884 254.712 302.172 254.064C302.532 253.416 302.712 252.66 302.712 251.796C302.712 250.572 302.316 249.6 301.524 248.88C300.804 248.16 299.796 247.8 298.5 247.8H288.672V256.116ZM329.904 273.828C329.904 270.012 330.948 266.664 333.036 263.784C335.124 260.832 338.004 258.528 341.676 256.872C345.42 255.216 349.668 254.388 354.42 254.388C356.652 254.388 358.74 254.568 360.684 254.928C362.7 255.288 364.428 255.828 365.868 256.548V254.82C365.868 252.156 365.076 250.176 363.492 248.88C361.98 247.584 359.496 246.936 356.04 246.936C352.872 246.936 349.884 247.476 347.076 248.556C344.34 249.564 341.46 251.076 338.436 253.092L332.496 240.348C336.312 237.9 340.308 236.1 344.484 234.948C348.732 233.724 353.268 233.112 358.092 233.112C367.092 233.112 374.04 235.164 378.936 239.268C383.904 243.3 386.388 249.312 386.388 257.304V268.32C386.388 270.264 386.676 271.632 387.252 272.424C387.828 273.144 388.836 273.576 390.276 273.72V291C388.62 291.36 387.036 291.612 385.524 291.756C384.084 291.972 382.788 292.08 381.636 292.08C377.964 292.08 375.156 291.432 373.212 290.136C371.34 288.768 370.116 286.788 369.54 284.196L369.108 282.144C366.588 285.384 363.672 287.868 360.36 289.596C357.048 291.252 353.52 292.08 349.776 292.08C346.032 292.08 342.648 291.288 339.624 289.704C336.6 288.12 334.224 285.96 332.496 283.224C330.768 280.416 329.904 277.284 329.904 273.828ZM363.168 275.232C363.96 274.656 364.608 274.044 365.112 273.396C365.616 272.676 365.868 271.956 365.868 271.236V267.024C364.716 266.592 363.384 266.232 361.872 265.944C360.432 265.656 359.136 265.512 357.984 265.512C355.536 265.512 353.448 266.124 351.72 267.348C350.064 268.572 349.236 270.12 349.236 271.992C349.236 273 349.524 273.936 350.1 274.8C350.676 275.592 351.468 276.24 352.476 276.744C353.484 277.176 354.636 277.392 355.932 277.392C357.156 277.392 358.416 277.212 359.712 276.852C361.08 276.42 362.232 275.88 363.168 275.232Z" fill="white"/>
<path d="M479.852 135.308C480.251 138.118 479.27 139.331 478.443 139.331C477.462 139.331 476.206 138.118 474.673 135.958C473.141 133.68 472.59 131.107 473.417 129.894C473.846 129.095 474.949 128.681 476.206 129.095C478.596 129.894 479.546 133.533 479.852 135.308ZM466.001 141.372C468.943 143.798 469.923 146.757 468.391 148.798C467.533 149.863 466.154 150.543 464.346 150.543C462.661 150.543 460.975 150.011 459.719 148.916C457.083 146.638 456.225 142.852 458.064 140.84C458.738 140.011 459.872 139.627 461.251 139.627C462.783 139.627 464.469 140.278 466.001 141.372ZM460.975 164.98C473.846 164.98 487.789 169.27 503.296 182.494C504.859 183.855 506.943 182.228 505.533 180.482C490.302 161.992 476.359 158.501 462.385 155.513C445.193 151.875 436.398 142.585 430.238 132.32C428.982 130.308 428.43 130.722 428.43 133.266C428.308 136.521 428.583 140.692 429.258 144.863C428.583 144.863 427.879 144.863 427.174 144.863C402.719 144.863 382.769 125.722 382.769 101.996C382.769 78.388 402.596 59.0992 427.174 59.0992C451.751 59.0992 471.609 78.2697 471.609 101.996C471.609 103.594 471.456 105.369 471.333 106.966C468.115 106.434 461.68 106.315 457.206 106.7C455.52 106.848 455.827 107.647 457.083 107.794C471.731 110.339 481.783 119.125 484.173 135.041C484.173 135.426 484.725 135.574 484.878 135.16C490.885 125.456 494.378 114.125 494.378 101.848C494.378 66.1106 464.346 37 427.174 37C390.032 37 360 65.9923 360 101.848C360 137.586 390.032 166.726 427.174 166.726C436.949 166.844 446.725 164.98 460.975 164.98Z" fill="#FF8C00"/>
<path fill-rule="evenodd" clip-rule="evenodd" d="M40.8354 139.008C41.9798 139.001 45.3791 138.605 46.8171 144.867C47.7883 149.084 49.3317 155.994 51.4511 165.593H52.315C54.5869 155.472 56.1491 148.563 56.9999 144.867C58.453 138.54 62.0894 139.008 63.5444 139.008H74.7662V184H63.3279V157.482H62.5618L56.1868 183.995H47.5813L41.2043 157.468H40.4382V184H29V139.008H40.8354ZM91.1904 139.008V165.542H92.1033L99.858 143.724C101.364 139.383 104.573 139.008 104.573 139.008H115.64V184H103.965V157.463H103.052L95.448 179.282C93.9422 183.604 90.5824 183.995 90.5824 183.995H79.515V139.008H91.1904ZM156.001 160.386C154.373 166.336 149.257 170.598 143.593 170.598H131.349V183.998H120.244V160.388L156.001 160.386Z" fill="#0F754E"/>
<path fill-rule="evenodd" clip-rule="evenodd" d="M144.132 139.011H119.664C120.248 149.027 126.939 157.601 133.868 157.601H156.775C158.096 149.276 153.545 139.011 144.132 139.011Z" fill="url(#paint0_linear_1204_21)"/>
<mask id="mask0_1204_21" style="mask-type:luminance" maskUnits="userSpaceOnUse" x="23" y="11" width="139" height="139">
<path d="M23 11H162V150H23V11Z" fill="white"/>
</mask>
<g mask="url(#mask0_1204_21)">
<path d="M111.241 45.002H73.625V114.616H111.241V45.002Z" fill="#FF5A00"/>
<path d="M76.137 79.8095C76.137 65.6642 82.5923 53.1133 92.4961 45.0022C85.2068 39.0988 76.0123 35.5298 65.9818 35.5298C42.221 35.5298 22.9961 55.3332 22.9961 79.8095C22.9961 104.286 42.221 124.089 65.9818 124.089C76.0123 124.089 85.2068 120.52 92.4961 114.617C82.578 106.62 76.137 93.9527 76.137 79.8095Z" fill="#EB001B"/>
<path d="M161.996 79.8095C161.996 104.286 142.771 124.089 119.01 124.089C108.98 124.089 99.7854 120.52 92.4961 114.617C102.527 106.491 108.855 93.9527 108.855 79.8095C108.855 65.6642 102.402 53.1133 92.4961 45.0022C99.7732 39.0988 108.968 35.5298 118.996 35.5298C142.769 35.5298 161.996 55.462 161.996 79.8095Z" fill="#F79E1B"/>
</g>
<mask id="mask1_1204_21" style="mask-type:luminance" maskUnits="userSpaceOnUse" x="193" y="37" width="136" height="136">
<path d="M193 37H329V173H193V37Z" fill="white"/>
</mask>
<g mask="url(#mask1_1204_21)">
<path d="M329 105C329 67.4446 298.555 37 261 37C223.445 37 193 67.4446 193 105C193 142.555 223.445 173 261 173C298.555 173 329 142.555 329 105Z" fill="#FF5533"/>
<path d="M243.798 95.5C244.068 95.264 244.202 95.146 244.222 95.03C244.232 94.98 244.23 94.9285 244.216 94.8793C244.203 94.8302 244.179 94.7846 244.146 94.746C244.07 94.656 243.896 94.624 243.55 94.556C239.51 93.77 235.328 93.308 231.66 93.27C231.484 93.27 231.396 93.268 231.328 93.234C231.267 93.2055 231.217 93.1596 231.182 93.102C231.142 93.036 231.136 92.95 231.118 92.776L229.758 78.79C229.742 78.616 229.732 78.53 229.758 78.458C229.781 78.3938 229.823 78.3381 229.878 78.298C229.938 78.254 230.024 78.238 230.196 78.204C250.688 74.238 271.084 74.036 291.882 78.212C292.052 78.246 292.138 78.262 292.198 78.308C292.252 78.348 292.294 78.404 292.318 78.468C292.342 78.538 292.334 78.626 292.316 78.798L290.904 92.778C290.888 92.952 290.878 93.038 290.84 93.102C290.806 93.1596 290.755 93.2055 290.694 93.234C290.626 93.268 290.54 93.268 290.364 93.27C286.694 93.31 282.512 93.77 278.472 94.556C278.126 94.624 277.952 94.656 277.876 94.746C277.843 94.7844 277.818 94.8299 277.805 94.8791C277.791 94.9283 277.789 94.9798 277.798 95.03C277.818 95.146 277.954 95.264 278.224 95.502C287.958 104.082 294.844 115.39 294.998 131.274C294.998 131.464 295 131.56 294.964 131.634C294.931 131.699 294.879 131.751 294.814 131.784C294.742 131.82 294.646 131.82 294.454 131.82H280.434C280.242 131.82 280.148 131.82 280.074 131.784C280.011 131.752 279.959 131.701 279.926 131.638C279.888 131.566 279.886 131.468 279.886 131.274C279.704 118.014 272.894 109.176 261.306 101.61C261.2 101.54 261.146 101.506 261.088 101.49C261.037 101.478 260.983 101.478 260.932 101.49C260.874 101.506 260.822 101.54 260.714 101.61C249.128 109.176 242.318 118.016 242.136 131.274C242.134 131.468 242.132 131.566 242.096 131.638C242.063 131.701 242.01 131.752 241.946 131.784C241.874 131.82 241.78 131.82 241.588 131.82H227.566C227.376 131.82 227.28 131.82 227.206 131.784C227.142 131.751 227.09 131.698 227.058 131.634C227.022 131.56 227.022 131.464 227.024 131.274C227.178 115.39 234.064 104.08 243.798 95.5Z" fill="white"/>
</g>
<defs>
<linearGradient id="paint0_linear_1204_21" x1="156.999" y1="150.706" x2="119.664" y2="150.706" gradientUnits="userSpaceOnUse">
<stop stop-color="#1F5CD7"/>
<stop offset="1" stop-color="#02AEFF"/>
</linearGradient>
</defs>
</svg>
