<svg width="512" height="295" viewBox="0 0 512 295" fill="none" xmlns="http://www.w3.org/2000/svg">
<g clip-path="url(#clip0_1204_26)">
<path d="M122.985 277V200.32H143.937V228.508H148.257L168.021 200.32H191.133L164.133 237.364L193.617 277H168.129L147.393 247.624H143.937V277H122.985ZM200.572 277V220.192H221.092V249.676L239.02 220.192H257.704V277H237.184V248.488L219.364 277H200.572ZM268.494 277V220.192H302.838C307.374 220.192 310.974 220.84 313.638 222.136C316.302 223.36 318.21 225.016 319.362 227.104C320.586 229.12 321.198 231.352 321.198 233.8C321.198 237.112 320.478 239.92 319.038 242.224C317.67 244.528 315.438 246.364 312.342 247.732C315.654 248.668 318.39 250.18 320.55 252.268C322.71 254.356 323.79 257.38 323.79 261.34C323.79 265.3 322.854 268.432 320.982 270.736C319.182 273.04 316.518 274.66 312.99 275.596C309.462 276.532 305.178 277 300.138 277H268.494ZM287.934 263.392H299.49C300.354 263.392 301.11 263.212 301.758 262.852C302.478 262.492 303.018 261.988 303.378 261.34C303.81 260.692 304.026 259.9 304.026 258.964C304.026 258.028 303.81 257.236 303.378 256.588C303.018 255.94 302.478 255.436 301.758 255.076C301.11 254.716 300.354 254.536 299.49 254.536H287.934V263.392ZM287.934 242.116H297.762C298.626 242.116 299.382 241.936 300.03 241.576C300.678 241.216 301.146 240.712 301.434 240.064C301.794 239.416 301.974 238.66 301.974 237.796C301.974 236.572 301.578 235.6 300.786 234.88C300.066 234.16 299.058 233.8 297.762 233.8H287.934V242.116ZM332.513 277V220.192H353.033V249.676L370.961 220.192H389.645V277H369.125V248.488L351.305 277H332.513Z" fill="white"/>
<path d="M304.646 140.509C305.064 143.898 304.036 145.36 303.169 145.36C302.141 145.36 300.823 143.898 299.217 141.294C297.611 138.548 297.032 135.445 297.9 133.983C298.35 133.02 299.506 132.521 300.823 133.02C303.329 133.983 304.325 138.37 304.646 140.509ZM290.125 147.82C293.209 150.745 294.237 154.311 292.631 156.772C291.732 158.056 290.286 158.876 288.39 158.876C286.624 158.876 284.857 158.234 283.539 156.915C280.777 154.169 279.877 149.604 281.805 147.179C282.511 146.18 283.7 145.716 285.146 145.716C286.752 145.716 288.519 146.501 290.125 147.82ZM284.857 176.28C298.35 176.28 312.967 181.451 329.223 197.393C330.862 199.033 333.046 197.072 331.568 194.968C315.602 172.678 300.984 168.47 286.334 164.868C268.311 160.481 259.091 149.283 252.634 136.907C251.317 134.482 250.738 134.982 250.738 138.049C250.61 141.972 250.899 147 251.606 152.029C250.899 152.029 250.16 152.029 249.421 152.029C223.784 152.029 202.87 128.955 202.87 100.353C202.87 71.8931 223.656 48.6406 249.421 48.6406C275.187 48.6406 296.004 71.7505 296.004 100.353C296.004 102.278 295.844 104.418 295.715 106.344C292.342 105.702 285.595 105.559 280.905 106.023C279.138 106.201 279.459 107.164 280.777 107.343C296.133 110.41 306.67 121.002 309.176 140.189C309.176 140.652 309.755 140.83 309.915 140.331C316.212 128.634 319.874 114.974 319.874 100.174C319.874 57.0928 288.39 22 249.421 22C210.484 22 179 56.9501 179 100.174C179 143.256 210.484 178.384 249.421 178.384C259.669 178.527 269.918 176.28 284.857 176.28Z" fill="#FF8C00"/>
</g>
<defs>
<clipPath id="clip0_1204_26">
<rect width="512" height="295" fill="white"/>
</clipPath>
</defs>
</svg>
